<?xml version="1.0" encoding="utf-8"?>
<!-- Generator: Adobe Illustrator 24.2.3, SVG Export Plug-In . SVG Version: 6.00 Build 0)  -->
<svg version="1.1" id="Layer_1" xmlns="http://www.w3.org/2000/svg" xmlns:xlink="http://www.w3.org/1999/xlink" x="0px" y="0px"
	 viewBox="0 0 172 30" style="enable-background:new 0 0 172 30;" xml:space="preserve">
<style type="text/css">
	.st0{fill:url(#SVGID_1_);}
	.st1{fill:url(#SVGID_2_);}
	.st2{fill:#FFFFFF;}
</style>
<g>
	<g>
		<g>
			<g>
				
					<linearGradient id="SVGID_1_" gradientUnits="userSpaceOnUse" x1="156.1807" y1="1005.1473" x2="156.1807" y2="1023.8158" gradientTransform="matrix(1 0 0 -1 0 1028)">
					<stop  offset="0" style="stop-color:#FD5900"/>
					<stop  offset="1" style="stop-color:#FFDE00"/>
				</linearGradient>
				<path class="st0" d="M148.9,10.4c0.3-0.3,0.3-0.8,0-1.1l-1.1-1.1c-0.3-0.3-0.8-0.3-1.1,0c-0.3,0.3-0.3,0.8,0,1.1l1.1,1.1
					C148.1,10.7,148.6,10.7,148.9,10.4z M156.2,7.3c0.4,0,0.8-0.4,0.8-0.8V5c0-0.4-0.4-0.8-0.8-0.8s-0.8,0.4-0.8,0.8v1.6
					C155.4,7,155.7,7.3,156.2,7.3z M145.1,16.8h-1.6c-0.4,0-0.8,0.4-0.8,0.8s0.4,0.8,0.8,0.8h1.6c0.4,0,0.8-0.4,0.8-0.8
					S145.5,16.8,145.1,16.8z M156.2,8.9c-4.8,0-8.7,3.9-8.7,8.7c0,1.9,0.6,3.7,1.7,5.2h13.9c1.1-1.5,1.7-3.3,1.7-5.2
					C164.9,12.8,161,8.9,156.2,8.9z M168.9,16.8h-1.6c-0.4,0-0.8,0.4-0.8,0.8s0.4,0.8,0.8,0.8h1.6c0.4,0,0.8-0.4,0.8-0.8
					S169.3,16.8,168.9,16.8z M164.6,8.1l-1.1,1.1c-0.3,0.3-0.3,0.8,0,1.1c0.3,0.3,0.8,0.3,1.1,0l1.1-1.1c0.3-0.3,0.3-0.8,0-1.1
					C165.4,7.8,164.9,7.8,164.6,8.1z"/>
			</g>
		</g>
		<g>
			<g>
				
					<linearGradient id="SVGID_2_" gradientUnits="userSpaceOnUse" x1="156.1807" y1="1004.8314" x2="156.1807" y2="1006.4135" gradientTransform="matrix(1 0 0 -1 0 1028)">
					<stop  offset="0" style="stop-color:#FFE59A"/>
					<stop  offset="1" style="stop-color:#FFFFD5"/>
				</linearGradient>
				<path class="st1" d="M168.9,21.6h-25.4c-0.4,0-0.8,0.4-0.8,0.8s0.4,0.8,0.8,0.8h25.4c0.4,0,0.8-0.4,0.8-0.8
					S169.3,21.6,168.9,21.6z"/>
			</g>
		</g>
	</g>
	<g>
		<path class="st2" d="M17.5,15.9c0,1.3-0.3,2.4-1,3.4s-1.6,1.8-2.8,2.4s-2.7,0.8-4.4,0.8c-2,0-3.7-0.4-5.1-1.2
			c-0.9-0.6-1.7-1.3-2.3-2.2C1.3,18.1,1,17.2,1,16.4c0-0.5,0.2-0.9,0.5-1.3c0.4-0.4,0.8-0.5,1.4-0.5c0.4,0,0.8,0.1,1.1,0.4
			s0.6,0.7,0.8,1.3c0.3,0.7,0.6,1.2,0.9,1.7s0.7,0.8,1.3,1.1c0.6,0.3,1.3,0.4,2.2,0.4c1.2,0,2.3-0.3,3-0.9c0.8-0.6,1.2-1.3,1.2-2.2
			c0-0.7-0.2-1.2-0.6-1.7c-0.4-0.4-1-0.8-1.6-1c-0.7-0.2-1.6-0.5-2.7-0.7c-1.5-0.3-2.7-0.8-3.7-1.2c-1-0.5-1.8-1.1-2.4-1.9
			C1.7,9,1.4,8,1.4,6.8c0-1.1,0.3-2.2,0.9-3s1.5-1.6,2.7-2C6.2,1.2,7.6,1,9.2,1c1.3,0,2.4,0.2,3.3,0.5c0.9,0.3,1.7,0.7,2.3,1.3
			c0.6,0.5,1.1,1.1,1.3,1.6s0.4,1.1,0.4,1.7c0,0.5-0.2,1-0.5,1.4C15.7,7.8,15.3,8,14.7,8c-0.5,0-0.8-0.1-1.1-0.4
			c-0.2-0.2-0.5-0.6-0.8-1.2c-0.4-0.8-0.8-1.4-1.4-1.8C10.9,4.2,10.1,4,8.9,4C7.8,4,7,4.2,6.3,4.7c-0.7,0.5-1,1.1-1,1.7
			c0,0.4,0.1,0.8,0.3,1.1s0.5,0.6,0.9,0.8s0.8,0.4,1.2,0.5c0.4,0.1,1.1,0.3,2,0.5C11,9.6,12,9.9,13,10.2c0.9,0.3,1.8,0.7,2.4,1.2
			c0.7,0.5,1.2,1.1,1.6,1.8C17.3,13.9,17.5,14.8,17.5,15.9z"/>
		<path class="st2" d="M30.8,20.3v-0.5c-0.5,0.6-0.9,1.1-1.5,1.5s-1.1,0.7-1.7,0.9c-0.6,0.2-1.3,0.3-2.1,0.3c-0.9,0-1.8-0.2-2.5-0.6
			s-1.3-0.9-1.7-1.6c-0.5-0.8-0.7-2-0.7-3.5V9.1c0-0.8,0.2-1.4,0.5-1.7c0.3-0.4,0.8-0.6,1.4-0.6c0.6,0,1.1,0.2,1.4,0.6
			s0.5,1,0.5,1.7v6.2c0,0.9,0.1,1.6,0.2,2.3c0.2,0.6,0.4,1.1,0.8,1.4c0.4,0.3,0.9,0.5,1.6,0.5c0.7,0,1.3-0.2,1.8-0.6s1-0.9,1.3-1.5
			c0.2-0.5,0.3-1.7,0.3-3.6V9.1c0-0.8,0.2-1.3,0.5-1.7s0.8-0.6,1.4-0.6c0.6,0,1,0.2,1.4,0.6c0.3,0.4,0.5,1,0.5,1.7v11.2
			c0,0.7-0.2,1.3-0.5,1.7s-0.8,0.6-1.3,0.6c-0.5,0-1-0.2-1.3-0.6C31,21.5,30.8,21,30.8,20.3z"/>
		<path class="st2" d="M41.8,8.9v0.5c0.7-0.9,1.4-1.6,2.2-2c0.8-0.4,1.7-0.6,2.8-0.6c1,0,1.9,0.2,2.7,0.7s1.4,1.1,1.8,1.9
			c0.3,0.5,0.4,1,0.5,1.5s0.1,1.2,0.1,2.1v7.2c0,0.8-0.2,1.4-0.5,1.8c-0.4,0.4-0.8,0.6-1.4,0.6c-0.6,0-1-0.2-1.4-0.6s-0.5-1-0.5-1.7
			v-6.4c0-1.3-0.2-2.2-0.5-2.9c-0.4-0.7-1.1-1-2.1-1c-0.7,0-1.3,0.2-1.9,0.6c-0.6,0.4-1,1-1.2,1.7c-0.2,0.6-0.3,1.7-0.3,3.2v4.8
			c0,0.8-0.2,1.4-0.5,1.8c-0.4,0.4-0.8,0.6-1.4,0.6c-0.6,0-1-0.2-1.4-0.6c-0.4-0.4-0.5-1-0.5-1.7V8.9c0-0.7,0.2-1.3,0.5-1.6
			C39,6.9,39.4,6.7,40,6.7c0.3,0,0.6,0.1,0.9,0.2c0.3,0.2,0.5,0.4,0.7,0.7S41.8,8.4,41.8,8.9z"/>
		<path class="st2" d="M70,9.6v11.2c0,1.3-0.1,2.4-0.4,3.3s-0.7,1.7-1.3,2.3c-0.6,0.6-1.4,1.1-2.4,1.3c-1,0.3-2.2,0.4-3.6,0.4
			c-1.3,0-2.5-0.2-3.6-0.6c-1-0.4-1.9-0.9-2.4-1.4c-0.6-0.6-0.8-1.2-0.8-1.8c0-0.5,0.2-0.9,0.5-1.2c0.3-0.3,0.7-0.4,1.2-0.4
			c0.6,0,1.1,0.2,1.5,0.8c0.2,0.3,0.4,0.5,0.6,0.8c0.2,0.3,0.5,0.5,0.7,0.7c0.3,0.2,0.6,0.3,1,0.4c0.4,0.1,0.8,0.1,1.3,0.1
			c1,0,1.8-0.1,2.3-0.4c0.6-0.3,0.9-0.7,1.2-1.2s0.4-1,0.4-1.6c0-0.6,0.1-1.5,0.1-2.8c-0.6,0.8-1.3,1.5-2.1,1.9
			c-0.8,0.4-1.7,0.7-2.8,0.7c-1.3,0-2.4-0.3-3.4-1s-1.7-1.6-2.2-2.8c-0.5-1.2-0.8-2.6-0.8-4.1c0-1.2,0.2-2.2,0.5-3.1
			s0.8-1.7,1.4-2.4c0.6-0.6,1.3-1.1,2-1.5c0.8-0.3,1.6-0.5,2.5-0.5c1.1,0,2,0.2,2.8,0.6c0.8,0.4,1.5,1.1,2.2,2V8.9
			c0-0.7,0.2-1.2,0.5-1.6s0.8-0.6,1.3-0.6c0.7,0,1.2,0.2,1.5,0.7C69.9,8,70,8.7,70,9.6z M58.8,14.5c0,1.6,0.3,2.8,1,3.6
			s1.6,1.2,2.7,1.2c0.6,0,1.2-0.2,1.8-0.5c0.6-0.3,1-0.9,1.4-1.6c0.4-0.7,0.5-1.5,0.5-2.5c0-1.6-0.3-2.8-1-3.7
			c-0.7-0.9-1.6-1.3-2.7-1.3c-1.1,0-2,0.4-2.7,1.3C59.2,11.7,58.8,12.9,58.8,14.5z"/>
		<path class="st2" d="M83,20.3c-0.9,0.7-1.8,1.3-2.7,1.6c-0.9,0.4-1.9,0.5-2.9,0.5c-1,0-1.9-0.2-2.6-0.6C74,21.5,73.4,21,73,20.3
			c-0.4-0.7-0.6-1.4-0.6-2.2c0-1.1,0.3-2,1-2.7c0.7-0.7,1.6-1.2,2.8-1.5c0.2-0.1,0.9-0.2,1.8-0.4c1-0.2,1.8-0.4,2.5-0.5
			c0.7-0.2,1.4-0.4,2.3-0.6c0-1-0.3-1.8-0.6-2.2c-0.4-0.5-1.1-0.7-2.3-0.7c-1,0-1.7,0.1-2.2,0.4c-0.5,0.3-0.9,0.7-1.3,1.2
			c-0.4,0.5-0.6,0.9-0.8,1.1c-0.1,0.2-0.5,0.3-0.9,0.3c-0.4,0-0.8-0.1-1.1-0.4c-0.3-0.3-0.5-0.6-0.5-1.1c0-0.7,0.2-1.3,0.7-2
			s1.2-1.2,2.3-1.6s2.3-0.6,3.8-0.6c1.7,0,3,0.2,4,0.6c1,0.4,1.7,1,2.1,1.9s0.6,2,0.6,3.5c0,0.9,0,1.7,0,2.3s0,1.3,0,2.1
			c0,0.7,0.1,1.5,0.4,2.3c0.2,0.8,0.4,1.3,0.4,1.5c0,0.4-0.2,0.8-0.6,1.1c-0.4,0.3-0.8,0.5-1.3,0.5c-0.4,0-0.8-0.2-1.2-0.6
			C83.8,21.5,83.4,21,83,20.3z M82.7,14.7c-0.6,0.2-1.4,0.4-2.5,0.7c-1.1,0.2-1.8,0.4-2.2,0.5c-0.4,0.1-0.8,0.3-1.2,0.6
			c-0.4,0.3-0.6,0.8-0.6,1.3c0,0.6,0.2,1.1,0.7,1.5c0.4,0.4,1,0.6,1.7,0.6c0.8,0,1.5-0.2,2.1-0.5c0.6-0.3,1.1-0.8,1.4-1.3
			c0.3-0.6,0.5-1.5,0.5-2.9V14.7z"/>
		<path class="st2" d="M93.6,8.9v0.5c0.7-0.9,1.5-1.6,2.3-2c0.8-0.4,1.7-0.6,2.7-0.6c1.2,0,2.3,0.3,3.3,0.9c1,0.6,1.8,1.5,2.4,2.7
			c0.6,1.2,0.9,2.6,0.9,4.2c0,1.2-0.2,2.3-0.5,3.3c-0.3,1-0.8,1.8-1.4,2.5c-0.6,0.7-1.3,1.2-2.1,1.6c-0.8,0.4-1.7,0.5-2.6,0.5
			c-1.1,0-2-0.2-2.8-0.7c-0.8-0.4-1.5-1.1-2.1-2v5.8c0,1.7-0.6,2.5-1.9,2.5c-0.7,0-1.2-0.2-1.4-0.7c-0.2-0.4-0.4-1.1-0.4-1.9V8.9
			c0-0.7,0.2-1.3,0.5-1.6c0.3-0.4,0.8-0.5,1.3-0.5c0.5,0,1,0.2,1.3,0.6C93.5,7.7,93.6,8.2,93.6,8.9z M101.2,14.5
			c0-1-0.2-1.9-0.5-2.6c-0.3-0.7-0.7-1.3-1.3-1.7c-0.6-0.4-1.2-0.6-1.8-0.6c-1.1,0-2,0.4-2.7,1.3s-1.1,2.1-1.1,3.7
			c0,1.5,0.4,2.7,1.1,3.6c0.7,0.9,1.6,1.3,2.7,1.3c0.6,0,1.2-0.2,1.8-0.6c0.5-0.4,1-0.9,1.3-1.7C101.1,16.5,101.2,15.6,101.2,14.5z"
			/>
		<path class="st2" d="M122.7,14.6c0,1.2-0.2,2.2-0.5,3.2c-0.4,1-0.9,1.8-1.6,2.5s-1.5,1.2-2.4,1.6c-0.9,0.4-2,0.6-3.2,0.6
			c-1.2,0-2.2-0.2-3.2-0.6c-0.9-0.4-1.7-0.9-2.4-1.6c-0.7-0.7-1.2-1.5-1.6-2.5c-0.4-1-0.5-2-0.5-3.2c0-1.2,0.2-2.2,0.5-3.2
			s0.9-1.8,1.5-2.5c0.7-0.7,1.5-1.2,2.4-1.6c1-0.4,2-0.6,3.2-0.6c1.2,0,2.2,0.2,3.2,0.6c1,0.4,1.8,0.9,2.4,1.6s1.2,1.5,1.6,2.5
			C122.5,12.4,122.7,13.4,122.7,14.6z M118.8,14.6c0-1.6-0.3-2.8-1-3.7c-0.7-0.9-1.6-1.3-2.8-1.3c-0.8,0-1.4,0.2-2,0.6
			c-0.6,0.4-1,1-1.3,1.7c-0.3,0.8-0.5,1.7-0.5,2.7c0,1,0.2,1.9,0.5,2.6s0.7,1.3,1.3,1.7c0.6,0.4,1.2,0.6,2,0.6
			c1.2,0,2.1-0.4,2.8-1.3C118.5,17.4,118.8,16.2,118.8,14.6z"/>
		<path class="st2" d="M129.6,16.9v3.2c0,0.8-0.2,1.4-0.6,1.8c-0.4,0.4-0.8,0.6-1.4,0.6c-0.6,0-1-0.2-1.4-0.6
			c-0.4-0.4-0.5-1-0.5-1.8V9.4c0-1.7,0.6-2.6,1.9-2.6c0.6,0,1.1,0.2,1.4,0.6s0.4,1,0.5,1.8c0.5-0.8,0.9-1.4,1.4-1.8s1.1-0.6,1.9-0.6
			c0.8,0,1.6,0.2,2.4,0.6s1.1,0.9,1.1,1.6c0,0.5-0.2,0.9-0.5,1.2c-0.3,0.3-0.7,0.5-1.1,0.5c-0.1,0-0.5-0.1-1-0.3
			c-0.5-0.2-1-0.3-1.4-0.3c-0.6,0-1,0.1-1.4,0.4c-0.4,0.3-0.6,0.7-0.8,1.3c-0.2,0.6-0.3,1.3-0.4,2.1
			C129.6,14.7,129.6,15.7,129.6,16.9z"/>
	</g>
</g>
</svg>
